<?xml version="1.0" encoding="UTF-8"?>
<svg version="1.1" xmlns="http://www.w3.org/2000/svg" width="512" height="512">
<path d="M0 0 C5.91052984 5.23367884 8.94023686 11.72610218 9.640625 19.60546875 C10.16031442 34.7197695 4.73262788 47.08110136 -5.39453125 58.015625 C-7.38330739 59.95459279 -9.22547423 61.66873403 -11.578125 63.14453125 C-15.25106296 62.92415497 -16.94779046 62.77486579 -19.578125 60.14453125 C-20.140625 57.01953125 -20.140625 57.01953125 -19.578125 53.14453125 C-18.05037135 51.01800384 -16.3338303 49.2069291 -14.52734375 47.3125 C-7.91956904 39.96317141 -3.88950994 31.14171529 -4.28125 21.15234375 C-5.01552564 16.18632164 -6.78503693 12.59405317 -10.71875 9.4140625 C-25.8507266 -0.221866 -42.88784141 -0.21543936 -59.93017578 3.23364258 C-68.37218964 5.11520066 -75.8744642 8.27573243 -83.578125 12.14453125 C-84.58359375 12.62921875 -85.5890625 13.11390625 -86.625 13.61328125 C-93.7157606 17.21875274 -99.63386314 21.88865027 -105.578125 27.14453125 C-106.55072266 27.97404297 -106.55072266 27.97404297 -107.54296875 28.8203125 C-117.57327119 37.98632585 -124.42398331 51.50037061 -125.046875 65.07421875 C-125.244681 78.17886656 -121.27655694 88.34177665 -112.578125 98.14453125 C-97.25176487 113.497922 -74.07565946 118.22175008 -53.078125 118.33203125 C-30.00942353 118.23135397 -5.30289361 113.50691555 15.421875 103.14453125 C21.60223383 102.69505061 21.60223383 102.69505061 24.359375 104.20703125 C26.05522787 107.29946883 25.85248157 109.69967866 25.421875 113.14453125 C21.53845306 116.67991065 16.76133659 118.18940177 11.921875 120.01953125 C10.99568359 120.37031738 10.06949219 120.72110352 9.11523438 121.08251953 C-4.3451484 126.04460979 -18.31599132 129.50476722 -32.578125 131.14453125 C-33.52171875 131.25539063 -34.4653125 131.36625 -35.4375 131.48046875 C-63.30961152 134.2676799 -93.99280676 130.69227187 -116.953125 113.33203125 C-128.15699346 103.74181324 -137.26180734 89.83680757 -138.81152344 74.89404297 C-140.0794395 53.31698917 -133.6421878 37.48325509 -119.578125 21.14453125 C-119.05863281 20.53996094 -118.53914063 19.93539062 -118.00390625 19.3125 C-90.2732031 -10.51372228 -34.32301002 -26.13008814 0 0 Z " fill="#CED0D6" transform="translate(304.578125,222.85546875)"/>
<path d="M0 0 C17.25871742 3.47305054 33.09205204 13.32299318 43.21875 27.61328125 C50.92650284 39.59280073 52.49271343 54.42554211 49.984375 68.30078125 C46.2942029 83.30748111 38.89246454 95.64316609 28.1640625 106.63671875 C27.3390625 107.50296875 26.5140625 108.36921875 25.6640625 109.26171875 C24.4265625 110.43734375 24.4265625 110.43734375 23.1640625 111.63671875 C22.56722656 112.22839844 21.97039062 112.82007813 21.35546875 113.4296875 C3.39864039 130.46396321 -22.84885784 139.33792773 -47.2734375 138.9140625 C-60.23455133 138.35929592 -72.76887213 134.3576426 -81.7734375 124.69921875 C-87.58683453 117.41876162 -88.8321908 110.78621747 -87.8359375 101.63671875 C-86.07972538 93.43001685 -82.29915168 87.01402941 -75.8359375 81.63671875 C-65.97952564 75.56435087 -56.05494473 72.82666408 -44.48828125 75.09765625 C-39.54849442 76.71569818 -35.87595841 79.41059132 -32.8359375 83.63671875 C-29.91745467 90.23502777 -30.5122839 97.03343951 -32.9609375 103.69921875 C-35.70622489 106.53601572 -37.97509891 106.5677752 -41.8359375 106.63671875 C-44.8359375 104.63671875 -44.8359375 104.63671875 -45.5859375 102.07421875 C-45.89539821 97.81913401 -45.44405901 93.84679073 -44.8359375 89.63671875 C-52.66747508 87.49445959 -58.53137197 88.28304315 -65.66796875 92.2109375 C-70.01212541 95.06790539 -72.42030493 98.68200475 -73.8359375 103.63671875 C-74.28458297 108.66154802 -73.97272731 111.63460762 -70.8359375 115.63671875 C-63.78234313 122.69031312 -53.51921773 124.76350705 -43.8984375 124.88671875 C-20.57235407 124.84665923 1.95332278 113.84310488 18.35546875 97.60546875 C30.04307902 85.51778409 36.60736541 70.15765653 36.52758789 53.41625977 C36.28702028 42.95424184 32.45238963 35.14887166 25.1640625 27.63671875 C16.00869358 19.75072507 4.94618624 16.04196689 -6.4375 12.53125 C-8.8359375 11.63671875 -8.8359375 11.63671875 -10.8359375 9.63671875 C-11.39963507 3.43604552 -11.39963507 3.43604552 -9.62109375 0.9140625 C-6.52535728 -1.30104872 -3.62846026 -0.44518048 0 0 Z " fill="#CED0D6" transform="translate(305.8359375,175.36328125)"/>
<path d="M0 0 C17.43332443 16.41245409 26.43765011 41.01679273 27.18652344 64.5456543 C27.20231445 65.2550415 27.21810547 65.96442871 27.234375 66.6953125 C27.26047852 67.37440674 27.28658203 68.05350098 27.31347656 68.75317383 C27.32522236 72.0969496 27.05007413 73.87080848 25.0625 76.6015625 C22.859375 78.1328125 22.859375 78.1328125 19.234375 78.0703125 C15.859375 77.1328125 15.859375 77.1328125 13.859375 74.1328125 C13.49633789 71.96313477 13.49633789 71.96313477 13.33203125 69.44921875 C13.26419434 68.52778076 13.19635742 67.60634277 13.12646484 66.65698242 C13.0589502 65.67963135 12.99143555 64.70228027 12.921875 63.6953125 C10.91735922 39.51073227 2.41408374 20.73027604 -16.08203125 4.54296875 C-49.51707821 -21.80367745 -95.61635961 -23.71203675 -136.11889648 -18.93481445 C-154.68465831 -16.75888702 -154.68465831 -16.75888702 -157.88793945 -19.19726562 C-159.8210777 -21.77428095 -159.53055483 -23.74774888 -159.140625 -26.8671875 C-154.19428601 -33.06879077 -142.74514881 -32.57359368 -135.296875 -33.42578125 C-87.27595982 -38.64207531 -37.45417151 -32.66987953 0 0 Z " fill="#CED0D6" transform="translate(385.140625,147.8671875)"/>
<path d="M0 0 C2 2 2 2 2.3125 5.4375 C2 9 2 9 0.79931641 10.61914062 C-1.4371333 12.33547163 -3.38169846 12.91433819 -6.1015625 13.65625 C-7.65339233 14.09735107 -7.65339233 14.09735107 -9.23657227 14.54736328 C-10.35475342 14.8617334 -11.47293457 15.17610352 -12.625 15.5 C-50.05678113 26.58801286 -83.40802078 46.80044348 -113 72 C-113.87398437 72.7425 -114.74796875 73.485 -115.6484375 74.25 C-118.15419096 76.44773726 -120.58391195 78.70383456 -123 81 C-123.58217285 81.54962402 -124.1643457 82.09924805 -124.76416016 82.66552734 C-140.03762391 97.1789645 -152.92166144 113.3556383 -163.12109375 131.8359375 C-165 135 -165 135 -167 136 C-172.21653972 136.44396083 -172.21653972 136.44396083 -174.875 134.9375 C-176.66582381 131.85330344 -176.31194264 129.52707868 -176 126 C-174.84110781 123.09914571 -173.2776009 120.51970805 -171.625 117.875 C-171.17237793 117.13145264 -170.71975586 116.38790527 -170.25341797 115.62182617 C-165.965514 108.70429492 -161.18442301 102.26762102 -156 96 C-155.32396729 95.17169678 -155.32396729 95.17169678 -154.63427734 94.32666016 C-144.42702171 81.86848276 -133.31487553 70.03820172 -120.625 60.078125 C-118.87973273 58.69645508 -117.17003463 57.26859302 -115.5 55.796875 C-92.59025917 35.68425369 -33.10410369 -8.04613631 0 0 Z " fill="#CED0D6" transform="translate(206,126)"/>
<path d="M0 0 C3.02839786 1.32954053 4.17705928 2.10962901 5.5625 5.125 C5.8125 8 5.8125 8 4.5625 11.125 C1.89111767 13.64517201 -1.25760065 15.31777751 -4.4375 17.125 C-5.01612793 17.4648291 -5.59475586 17.8046582 -6.19091797 18.15478516 C-41.90160828 39.11840202 -81.08462438 55.23297775 -122.4375 60.125 C-123.17097656 60.2178125 -123.90445313 60.310625 -124.66015625 60.40625 C-145.7627915 62.83582972 -173.53736056 63.96436426 -193.4375 55.125 C-195.4375 53.125 -195.4375 53.125 -195.75 49.6875 C-195.4375 46.125 -195.4375 46.125 -194.203125 44.39453125 C-191.84967974 42.70234163 -190.7337346 42.90104648 -187.875 43.25 C-186.87855469 43.36472656 -185.88210937 43.47945313 -184.85546875 43.59765625 C-182.49384494 43.96202107 -180.1415945 44.39086246 -177.80078125 44.87109375 C-155.90640414 49.32346004 -132.29744909 48.36396952 -110.4375 44.125 C-109.60202637 43.96402832 -108.76655273 43.80305664 -107.90576172 43.63720703 C-71.58013328 36.35248748 -36.77773248 21.0061536 -5.57177734 1.23217773 C-3.4375 0.125 -3.4375 0.125 0 0 Z " fill="#CED0D6" transform="translate(393.4375,354.875)"/>
<path d="M0 0 C2.90787128 2.90787128 2.31755898 5.35310169 2.38012695 9.33740234 C2.35923296 21.71659775 1.04477659 33.01279133 -2 45 C-2.1659668 45.69689941 -2.33193359 46.39379883 -2.50292969 47.11181641 C-11.54457474 84.67705429 -34.92868811 119.05248984 -62 146 C-63.27617187 147.32837891 -63.27617187 147.32837891 -64.578125 148.68359375 C-78.40466252 162.93463023 -78.40466252 162.93463023 -85.4375 163.0625 C-88 162 -88 162 -90 159 C-90.46875 156.15234375 -90.46875 156.15234375 -90 153 C-88.19603013 150.88634864 -86.60916934 149.30564889 -84.5 147.5625 C-83.94900635 147.08224365 -83.3980127 146.6019873 -82.83032227 146.10717773 C-81.23419883 144.7205732 -79.62167949 143.35656193 -78 142 C-44.16721271 113.5346246 -16.46705499 67.387569 -12 23 C-11.73049387 18.99497552 -11.52646133 14.98750303 -11.46533203 10.97363281 C-11.34194597 6.49298533 -10.77755628 3.56725365 -8 0 C-5.09288879 -1.4535556 -3.10402897 -0.71133997 0 0 Z " fill="#CED0D6" transform="translate(504,186)"/>
<path d="M0 0 C1.875 1.6875 1.875 1.6875 3 4 C3 9.14286597 0.473349 13.44882497 -1.6640625 18.0078125 C-10.21081308 37.15053456 -12.77482237 61.03636432 -5.73632812 81.09082031 C3.96025893 106.23250161 21.55647159 123.12396854 45.43969727 134.99438477 C48.88012288 136.7287746 50.82233486 137.7335023 53 141 C52.875 144.5625 52.875 144.5625 52 148 C50.3125 149.5 50.3125 149.5 48 150 C42.30000032 149.57681821 37.88896637 147.20721337 32.9375 144.5625 C32.09767578 144.11511475 31.25785156 143.66772949 30.39257812 143.20678711 C5.77097645 129.75862651 -12.45050515 108.35248073 -20.375 81.4375 C-27.19641104 56.25759576 -23.36319668 28.40618224 -11.609375 5.26171875 C-8.47350946 -0.05602914 -6.06513702 -1.97116953 0 0 Z " fill="#CED0D6" transform="translate(128,255)"/>
<path d="M0 0 C0.88429688 -0.020625 1.76859375 -0.04125 2.6796875 -0.0625 C9.05117485 -0.10099841 9.05117485 -0.10099841 12.33203125 1.546875 C13.75 3.25 13.75 3.25 14.1875 6.75 C13.75 10.25 13.75 10.25 12.47705078 11.94335938 C10.37548325 13.5333494 9.29296676 13.63030004 6.6796875 13.65625 C5.47179565 13.6857373 5.47179565 13.6857373 4.23950195 13.71582031 C3.37671631 13.72709961 2.51393066 13.73837891 1.625 13.75 C-36.82664169 15.01082313 -76.03781678 31.91377244 -104.06640625 58.2421875 C-106.25 60.25 -106.25 60.25 -108.81640625 62.2421875 C-111.16006724 64.17580187 -112.79599557 66.09106734 -114.625 68.5 C-117.26985891 71.6010682 -117.81302219 72.1698874 -122 72.9375 C-125.25 72.25 -125.25 72.25 -127.1875 71.125 C-128.88262266 68.13360708 -128.89407189 66.66358101 -128.25 63.25 C-126.27332158 60.244642 -123.7694552 57.80390928 -121.25 55.25 C-120.42371094 54.35152344 -119.59742188 53.45304687 -118.74609375 52.52734375 C-100.55294795 33.07399615 -75.97320248 19.54288059 -51.25 10.25 C-50.59338379 10.00169434 -49.93676758 9.75338867 -49.26025391 9.49755859 C-33.4153842 3.61232127 -16.9060764 0.1003328 0 0 Z " fill="#CED0D6" transform="translate(261.25,172.75)"/>
<path d="M0 0 C1.8125 1.1875 1.8125 1.1875 3 3 C3.52639592 8.12860027 2.02138309 11.68930781 -0.1875 16.1875 C-13.43876202 44.99254828 -17.03433405 82.14342601 -6.18359375 112.2890625 C-4.48267617 116.18489353 -2.40444704 119.81557335 -0.171875 123.4296875 C1.24023591 126.52691743 1.34897306 128.62965495 1 132 C-1 135 -1 135 -4.6875 135.8125 C-7.6656514 135.68841036 -8.72554485 135.26151977 -10.90625 133.18359375 C-21.30332739 118.97881477 -25.47005996 100.3776171 -26 83 C-26.0515625 81.78957031 -26.103125 80.57914062 -26.15625 79.33203125 C-26.82125503 56.76049107 -24.45745877 19.20134537 -8.50830078 1.32836914 C-5.48638166 -1.33305234 -3.77637125 -1.10527939 0 0 Z " fill="#CED0D6" transform="translate(31,271)"/>
<path d="M0 0 C4.60512277 4.15248249 7.59306969 8.56948288 8.3359375 14.83203125 C8.43668489 22.51905689 7.69813136 27.98846768 2.38671875 33.75 C-3.05436391 38.76882569 -8.34173279 40.44807622 -15.6953125 40.25 C-22.30214988 39.53332612 -26.66865882 37.07385681 -31 32 C-31.556875 31.38125 -32.11375 30.7625 -32.6875 30.125 C-36.4977548 23.95601604 -36.37671462 17.87219529 -35 11 C-32.53949878 4.47967176 -28.16728504 0.16271028 -22 -3 C-14.16222248 -5.31570699 -6.89875008 -4.43491077 0 0 Z " fill="#CED0D6" transform="translate(159,46)"/>
<path d="M0 0 C3.8125 0.6875 3.8125 0.6875 5.5390625 2.7421875 C7.63377036 6.21960891 9.42442514 9.65312003 10.8515625 13.45703125 C11.59942969 15.86175482 11.59942969 15.86175482 13.875 16.6875 C14.844375 17.0175 15.81375 17.3475 16.8125 17.6875 C20.04609617 19.07017911 23.03136079 20.51934657 25.8125 22.6875 C27.1875 26.25 27.1875 26.25 26.8125 29.6875 C24.67196098 32.12328578 22.38038721 33.40499287 19.49609375 34.83984375 C12.7019569 38.41843491 9.70971253 42.27077193 6.1875 49.078125 C4.8125 51.6875 4.8125 51.6875 2.8125 53.6875 C-0.58984375 53.72265625 -0.58984375 53.72265625 -4.1875 52.6875 C-5.71205564 50.42674042 -6.69818778 48.58576019 -7.75 46.125 C-11.84893312 37.71061063 -17.88399743 34.44273572 -26.1875 30.6875 C-26.4453125 27.38671875 -26.4453125 27.38671875 -26.1875 23.6875 C-24.4296875 21.83203125 -24.4296875 21.83203125 -22.0625 20.5 C-21.2375 20.00371094 -20.4125 19.50742187 -19.5625 18.99609375 C-17.74264114 17.99337546 -15.9059756 17.02110731 -14.0625 16.0625 C-10.08079705 12.77326713 -8.06766661 8.76453706 -5.60546875 4.26953125 C-3.69890723 0.79780352 -3.69890723 0.79780352 0 0 Z " fill="#CED0D6" transform="translate(433.1875,415.3125)"/>
<path d="M0 0 C3 0.875 3 0.875 4.9375 2.5 C6.63761167 6.30024963 5.67846089 9.88959839 4.35375977 13.76611328 C3.55312303 15.74326304 2.6992335 17.68496037 1.8125 19.625 C1.49788818 20.32455811 1.18327637 21.02411621 0.85913086 21.74487305 C-8.61841025 42.55150413 -22.67670659 60.05805542 -40 74.875 C-40.75410156 75.53886719 -41.50820313 76.20273437 -42.28515625 76.88671875 C-45.62446406 79.64695585 -47.43730024 80.79197872 -51.8125 81.4375 C-55 80.875 -55 80.875 -56.9375 79.75 C-58.55824231 76.88986651 -58.51742613 75.10891331 -58 71.875 C-54.97703389 68.52296563 -51.60889988 65.65229126 -48.14160156 62.7800293 C-29.04703568 46.91802881 -15.06704165 27.23868084 -6.88671875 3.6953125 C-5.28800331 0.41336804 -3.4996292 -0.14581788 0 0 Z " fill="#CED0D6" transform="translate(403,241.125)"/>
<path d="M0 0 C5.04003777 3.5509357 8.61725348 7.31499849 10.25 13.375 C11.16377466 19.05002159 10.5171357 23.37741879 7.2265625 28.14453125 C3.42179364 32.7551136 0.58046682 35.52519281 -5.5 36.1796875 C-11.56317631 36.49393749 -16.35611953 35.66772444 -21.25 31.9375 C-25.36563056 27.52497072 -27.04716277 23.62509327 -27.5 17.625 C-27.12635075 12.11367354 -25.48451913 8.4055768 -21.9375 4.1875 C-15.17994809 -1.46998532 -8.3870197 -2.74191029 0 0 Z " fill="#CED0D6" transform="translate(208.25,354.0625)"/>
<path d="M0 0 C11.27623477 15.57324657 16.96303307 43.03510428 15 62 C13.50821468 65.74589266 13.50821468 65.74589266 11 67 C5.60853493 67.45884809 5.60853493 67.45884809 3.34545898 65.75244141 C1.70212161 63.61201759 1.56108615 62.38773204 1.41015625 59.7109375 C1.35053711 58.86031738 1.29091797 58.00969727 1.22949219 57.13330078 C1.17438477 56.22306152 1.11927734 55.31282227 1.0625 54.375 C-0.20828813 38.33061221 -3.76495931 23.47008138 -11 9 C-11.57003257 2.72964169 -11.57003257 2.72964169 -9.4375 0 C-5.54804591 -1.59567347 -3.96053476 -1.57055689 0 0 Z " fill="#CED0D6" transform="translate(492,109)"/>
<path d="M0 0 C5.01585732 4.20272198 7.40790849 7.31634922 8.01953125 13.921875 C7.53263716 19.56984645 5.9897615 23.72471087 1.64453125 27.421875 C-3.59504903 31.21220967 -7.93147639 31.16193642 -14.29296875 30.546875 C-18.5628947 29.25343028 -20.98368505 26.94339256 -23.73046875 23.421875 C-25.95649583 18.93127492 -26.06391306 14.44001136 -25.29296875 9.546875 C-23.49016434 4.21948668 -20.18841073 1.19857274 -15.29296875 -1.453125 C-10.00685199 -3.10772252 -4.75463739 -3.01316032 0 0 Z " fill="#CED0D6" transform="translate(419.29296875,90.453125)"/>
<path d="M0 0 C2.89155177 1.68113475 3.42165278 2.54890532 5 5.375 C7.33343657 9.51834571 9.87125141 11.23087637 14.11328125 13.26171875 C15.6875 14.5625 15.6875 14.5625 16.21484375 16.99609375 C15.6875 19.5625 15.6875 19.5625 13.640625 21.3359375 C12.74859375 21.86445313 11.8565625 22.39296875 10.9375 22.9375 C6.17307185 26.00805922 3.99415413 28.42495216 1.6875 33.5625 C-0.2925 33.5625 -2.2725 33.5625 -4.3125 33.5625 C-4.580625 32.95921875 -4.84875 32.3559375 -5.125 31.734375 C-7.85495531 26.16670299 -9.92298358 23.81921852 -15.62890625 21.45703125 C-17.3125 20.5625 -17.3125 20.5625 -18.5 18 C-18.3125 15.5625 -18.3125 15.5625 -17.1875 13.9375 C-11.22159091 9.5625 -11.22159091 9.5625 -8.3125 9.5625 C-7.879375 8.44875 -7.879375 8.44875 -7.4375 7.3125 C-4.12663911 -0.78071551 -4.12663911 -0.78071551 0 0 Z " fill="#CED0D6" transform="translate(112.3125,441.4375)"/>
<path d="M0 0 C3.49112796 1.43508817 5.38309329 3.57739186 6.90625 7.08984375 C8.08869848 11.20729826 8.10358543 13.62831109 6.9375 17.8125 C4.56702486 21.71231395 2.59847596 24.22153096 -1.890625 25.56640625 C-6.75947908 26.44911834 -9.81483837 25.85351929 -14 23 C-17.80627154 19.29660067 -18.90856463 16.30325168 -19 11 C-17.84030197 7.19876757 -16.51482981 4.62744882 -14 1.5625 C-9.37938031 -0.84407276 -5.09447479 -0.83662929 0 0 Z " fill="#CED0D6" transform="translate(71,317)"/>
<path d="M0 0 C3.43201009 3.00300883 5.18323592 5.55884532 6 10 C6 14.40667793 5.46504601 16.38459918 3 20 C-0.45653209 23.45653209 -3.10260228 24.80410409 -8 25 C-12.77511365 24.24603469 -16.1536404 22.97456264 -19.11328125 18.97265625 C-21.00196309 14.77096318 -20.82145939 10.4584046 -20 6 C-18.2860529 2.3324437 -15.79920511 0.43593006 -12.25 -1.5 C-7.77510561 -2.18844529 -4.18699836 -1.74265493 0 0 Z " fill="#CED0D6" transform="translate(293,138)"/>
<path d="M0 0 C2.96623941 2.41006952 5.0012287 4.18499539 5.42578125 8.0546875 C5.59292574 13.86075929 5.24780848 17.37135863 1.1875 21.8828125 C-3.24623116 24.60908549 -7.75599252 24.66441776 -12.8125 23.8828125 C-16.21352578 22.20312222 -18.24826989 19.79048703 -20.25 16.5703125 C-21.17842282 12.1345146 -21.05407324 8.06395468 -18.80078125 4.10546875 C-14.01198974 -2.07312976 -6.95018808 -4.28395214 0 0 Z " fill="#CED0D6" transform="translate(444.8125,235.1171875)"/>
<path d="M0 0 C2.25 0.125 2.25 0.125 5 1 C9 6.08108108 9 6.08108108 9 9 C9.928125 9.268125 10.85625 9.53625 11.8125 9.8125 C16.37288136 11.5114656 16.37288136 11.5114656 18 14 C17.80078125 15.9609375 17.80078125 15.9609375 17 18 C15.328125 19.203125 15.328125 19.203125 13.25 20.25 C8.59282238 22.92201378 6.42466234 26.30221672 4 31 C1.8125 31 1.8125 31 -1 30 C-2.19921875 28.29296875 -2.19921875 28.29296875 -3.375 26.1875 C-5.88500859 21.7208074 -8.40842269 20.16074226 -13 18 C-13.265625 15.6796875 -13.265625 15.6796875 -13 13 C-11.171875 11.4453125 -11.171875 11.4453125 -8.75 10.125 C-4.10343464 7.3151085 -2.25200078 4.89565388 0 0 Z " fill="#CED0D6" transform="translate(481,355)"/>
<path d="M0 0 C1.75 0.125 1.75 0.125 4 1 C8 6.22222222 8 6.22222222 8 9 C8.7425 9.268125 9.485 9.53625 10.25 9.8125 C12.86636554 10.94229421 14.80187111 12.20893202 17 14 C16.875 15.75 16.875 15.75 16 18 C10.77777778 22 10.77777778 22 8 22 C7.731875 22.928125 7.46375 23.85625 7.1875 24.8125 C5.4885344 29.37288136 5.4885344 29.37288136 3 31 C1.0625 31.0625 1.0625 31.0625 -1 30 C-5 24.77777778 -5 24.77777778 -5 22 C-5.928125 21.731875 -6.85625 21.46375 -7.8125 21.1875 C-12.37288136 19.4885344 -12.37288136 19.4885344 -14 17 C-14.0625 15.0625 -14.0625 15.0625 -13 13 C-7.77777778 9 -7.77777778 9 -5 9 C-4.731875 8.2575 -4.46375 7.515 -4.1875 6.75 C-3.05770579 4.13363446 -1.79106798 2.19812889 0 0 Z " fill="#CED0D6" transform="translate(341,39)"/>
<path d="M0 0 C3.62259904 1.8837515 5.68975631 4.06926894 7 8 C7.53832527 13.70624783 6.61757835 16.5555466 3 21 C-1.2432447 23.8288298 -5.01734529 23.65268001 -10 23 C-13.50252011 20.95686327 -15.77361702 18.90212767 -17 15 C-17.480151 10.67864101 -17.29173086 8.5331633 -15.1875 4.6875 C-10.83003315 -0.66595927 -6.53417639 -1.01462366 0 0 Z " fill="#CED0D6" transform="translate(324,457)"/>
<path d="M0 0 C2.125 1.4375 2.125 1.4375 4 4.3125 C5.96175465 7.62798618 5.96175465 7.62798618 9.375 9.5625 C10.2825 10.18125 11.19 10.8 12.125 11.4375 C12.125 12.7575 12.125 14.0775 12.125 15.4375 C11.031875 15.97375 9.93875 16.51 8.8125 17.0625 C5.00672908 19.19037592 4.02905711 21.54283773 2.125 25.4375 C-0.5625 26.3125 -0.5625 26.3125 -2.875 26.4375 C-3.390625 25.365 -3.90625 24.2925 -4.4375 23.1875 C-6.80855373 18.96753795 -9.57243642 17.50604018 -13.875 15.4375 C-13.875 13.7875 -13.875 12.1375 -13.875 10.4375 C-12.781875 9.90125 -11.68875 9.365 -10.5625 8.8125 C-6.80192249 6.69717515 -5.55943867 4.42696001 -3.875 0.4375 C-1.875 -0.5625 -1.875 -0.5625 0 0 Z " fill="#CED0D6" transform="translate(53.875,101.5625)"/>
</svg>
